<svg id="Layer_1" data-name="Layer 1" xmlns="http://www.w3.org/2000/svg" viewBox="0 0 765.77 317.32"><defs><style>.cls-1{fill:#fff;}</style></defs><path class="cls-1" d="M459.78,616.58l-3.1.2v8.32h-2.77V605.3h2.77v9.07l3.1-.2,4.49-8.87h3.14l-5.24,10,5.5,9.84h-3.22Z" transform="translate(-120.18 -335.82)"/><path class="cls-1" d="M477.86,616.58l-3.11.2v8.32H472V605.3h2.76v9.07l3.11-.2,4.49-8.87h3.13l-5.23,10,5.49,9.84h-3.22Z" transform="translate(-120.18 -335.82)"/><path class="cls-1" d="M491.64,623.85q-1.75-1.58-1.75-5V605.3h2.76v13.64q0,4,4.29,4a4.91,4.91,0,0,0,3.35-1,3.86,3.86,0,0,0,1.11-3V605.3h2.73v13.59q0,3.39-1.77,5T497,625.42C494.6,625.42,492.81,624.9,491.64,623.85Z" transform="translate(-120.18 -335.82)"/><path class="cls-1" d="M520.76,607.72v7.14h7.8v2.41h-7.8v7.83H518V605.3h12.09v2.42Z" transform="translate(-120.18 -335.82)"/><path class="cls-1" d="M533.74,610.71h2.65v1.82a14.43,14.43,0,0,1,5.07-2.13v2.7a21.6,21.6,0,0,0-2.34.63,20.41,20.41,0,0,0-2,.78l-.69.32V625.1h-2.68Z" transform="translate(-120.18 -335.82)"/><path class="cls-1" d="M546,623.71c-.94-1.15-1.41-3-1.41-5.43q0-4,1.52-5.94a5.52,5.52,0,0,1,4.67-1.94q5.88,0,5.87,6.67l-.17,2h-9.18a6.4,6.4,0,0,0,.4,2.4,2.31,2.31,0,0,0,1.21,1.23,5.94,5.94,0,0,0,2.36.37c.59,0,1.27,0,2,0s1.42-.08,2-.13l.81-.09,0,2.07a33.08,33.08,0,0,1-5.44.58C548.49,625.42,546.91,624.85,546,623.71Zm8-6.78a5.63,5.63,0,0,0-.74-3.31,2.89,2.89,0,0,0-2.46-1,3.23,3.23,0,0,0-2.65,1,5.31,5.31,0,0,0-.86,3.27Z" transform="translate(-120.18 -335.82)"/><path class="cls-1" d="M562.06,623.71c-.94-1.15-1.41-3-1.41-5.43q0-4,1.51-5.94a5.55,5.55,0,0,1,4.68-1.94q5.86,0,5.87,6.67l-.17,2h-9.18a6.4,6.4,0,0,0,.4,2.4,2.31,2.31,0,0,0,1.21,1.23,5.9,5.9,0,0,0,2.36.37c.59,0,1.26,0,2,0s1.42-.08,2-.13l.8-.09.06,2.07a33.18,33.18,0,0,1-5.44.58Q563.47,625.42,562.06,623.71Zm8-6.78a5.64,5.64,0,0,0-.73-3.31,2.89,2.89,0,0,0-2.46-1,3.23,3.23,0,0,0-2.65,1,5.25,5.25,0,0,0-.86,3.27Z" transform="translate(-120.18 -335.82)"/><path class="cls-1" d="M577.57,604.61h2.68V625.1h-2.68Z" transform="translate(-120.18 -335.82)"/><path class="cls-1" d="M586,624.27A4.7,4.7,0,0,1,585,621a4,4,0,0,1,1.09-3.13,6,6,0,0,1,3.48-1.22l4.09-.37v-1.12a2.52,2.52,0,0,0-.55-1.83,2.12,2.12,0,0,0-1.61-.56,52.1,52.1,0,0,0-5.58.34l-.09-2a24.87,24.87,0,0,1,5.67-.72,5.1,5.1,0,0,1,3.69,1.13,4.91,4.91,0,0,1,1.15,3.59v6.93a1.23,1.23,0,0,0,.39.88,2.06,2.06,0,0,0,1,.42l-.09,2.07a6.72,6.72,0,0,1-2.1-.28,4.23,4.23,0,0,1-1.53-.84,11.76,11.76,0,0,1-4.89,1.12A4.06,4.06,0,0,1,586,624.27Zm7-1.64.6-.21v-4.23l-3.74.35a2.58,2.58,0,0,0-1.66.68,2.32,2.32,0,0,0-.53,1.65c0,1.54.64,2.3,1.93,2.3A10.85,10.85,0,0,0,593,622.63Z" transform="translate(-120.18 -335.82)"/><path class="cls-1" d="M601.89,610.71h2.65v.95a11.16,11.16,0,0,1,2.24-1,7.77,7.77,0,0,1,2.13-.28,4.93,4.93,0,0,1,2.85.72,3.87,3.87,0,0,1,1.47,2.23,15.36,15.36,0,0,1,.43,4.1v7.65H611v-7.6a14.28,14.28,0,0,0-.21-2.8,2.41,2.41,0,0,0-.81-1.44,2.77,2.77,0,0,0-1.71-.45,8.55,8.55,0,0,0-3.2.67l-.48.23V625.1h-2.68Z" transform="translate(-120.18 -335.82)"/><path class="cls-1" d="M620.75,624.64a4.38,4.38,0,0,1-1.84-2.42,13.73,13.73,0,0,1-.56-4.31,10.35,10.35,0,0,1,1.25-5.54c.84-1.32,2.35-2,4.53-2a16.23,16.23,0,0,1,1.79.1c.63.06,1.49.2,2.56.41l-.09,2.13c-1.63-.15-2.78-.23-3.45-.23a5,5,0,0,0-2.36.46,2.5,2.5,0,0,0-1.16,1.56,10.86,10.86,0,0,0-.34,3.11,10.31,10.31,0,0,0,.34,3,2.56,2.56,0,0,0,1.16,1.55A4.88,4.88,0,0,0,625,623l3.39-.26.09,2.19a29.23,29.23,0,0,1-4.35.49A6.52,6.52,0,0,1,620.75,624.64Z" transform="translate(-120.18 -335.82)"/><path class="cls-1" d="M633.72,623.71c-.94-1.15-1.41-3-1.41-5.43q0-4,1.51-5.94a5.54,5.54,0,0,1,4.68-1.94q5.87,0,5.87,6.67l-.18,2H635a6.37,6.37,0,0,0,.41,2.4,2.33,2.33,0,0,0,1.2,1.23A6,6,0,0,0,639,623c.6,0,1.27,0,2,0s1.42-.08,2-.13l.81-.09.06,2.07a33.29,33.29,0,0,1-5.44.58Q635.13,625.42,633.72,623.71Zm8-6.78a5.64,5.64,0,0,0-.73-3.31,2.89,2.89,0,0,0-2.46-1,3.22,3.22,0,0,0-2.65,1,5.24,5.24,0,0,0-.87,3.27Z" transform="translate(-120.18 -335.82)"/><path class="cls-1" d="M649.06,610.71h2.65v1.82a14.31,14.31,0,0,1,5.06-2.13v2.7a20.86,20.86,0,0,0-2.33.63,19.74,19.74,0,0,0-2,.78l-.69.32V625.1h-2.67Z" transform="translate(-120.18 -335.82)"/><path class="cls-1" d="M661.06,625l-.87-.15.12-2.3a40.25,40.25,0,0,0,5,.49,4.58,4.58,0,0,0,2.3-.46,1.61,1.61,0,0,0,.78-1.5,1.52,1.52,0,0,0-.39-1.13,2.43,2.43,0,0,0-1-.58,14.74,14.74,0,0,0-1.73-.36l-.69-.11a12,12,0,0,1-2.61-.67,3.18,3.18,0,0,1-1.48-1.18,3.81,3.81,0,0,1-.52-2.13c0-3,1.83-4.46,5.47-4.46a27.1,27.1,0,0,1,4.32.44l.83.17-.05,2.24a39,39,0,0,0-4.95-.46c-2,0-2.94.6-2.94,1.79a1.35,1.35,0,0,0,.37,1,2.22,2.22,0,0,0,1,.53c.39.12.95.24,1.68.38.14,0,.4.06.81.14a12.7,12.7,0,0,1,2.66.73,3,3,0,0,1,1.44,1.23,4.33,4.33,0,0,1,.47,2.18,4.22,4.22,0,0,1-1.38,3.5,6.74,6.74,0,0,1-4.26,1.11A27.53,27.53,0,0,1,661.06,625Z" transform="translate(-120.18 -335.82)"/><path class="cls-1" d="M683.88,605.3h7.25a5.72,5.72,0,0,1,6.53,6.53A7.2,7.2,0,0,1,696,617a6.43,6.43,0,0,1-4.88,1.74h-4.49v6.39h-2.76Zm7.22,11c2.49,0,3.74-1.48,3.74-4.46a4.68,4.68,0,0,0-.89-3.15,3.66,3.66,0,0,0-2.85-1h-4.46v8.6Z" transform="translate(-120.18 -335.82)"/><path class="cls-1" d="M702.21,604.61h2.68V625.1h-2.68Z" transform="translate(-120.18 -335.82)"/><path class="cls-1" d="M710.67,624.27a4.7,4.7,0,0,1-1.06-3.31,4,4,0,0,1,1.09-3.13,6,6,0,0,1,3.48-1.22l4.09-.37v-1.12a2.52,2.52,0,0,0-.55-1.83,2.12,2.12,0,0,0-1.61-.56,52.1,52.1,0,0,0-5.58.34l-.09-2a24.73,24.73,0,0,1,5.67-.72,5.05,5.05,0,0,1,3.68,1.13,4.87,4.87,0,0,1,1.15,3.59v6.93a1.32,1.32,0,0,0,.39.88,2.06,2.06,0,0,0,1,.42l-.08,2.07a6.72,6.72,0,0,1-2.1-.28,4.23,4.23,0,0,1-1.53-.84,11.76,11.76,0,0,1-4.89,1.12A4.06,4.06,0,0,1,710.67,624.27Zm7-1.64.61-.21v-4.23l-3.74.35a2.58,2.58,0,0,0-1.66.68,2.32,2.32,0,0,0-.53,1.65c0,1.54.64,2.3,1.93,2.3A10.74,10.74,0,0,0,717.66,622.63Z" transform="translate(-120.18 -335.82)"/><path class="cls-1" d="M728.81,624.93a2.81,2.81,0,0,1-1.22-1.64,10.77,10.77,0,0,1-.37-3.2V613h-1.93v-2.3h1.93v-4.29h2.67v4.29h4.23V613h-4.23v6.59a16.22,16.22,0,0,0,.1,2,1.78,1.78,0,0,0,.48,1,1.7,1.7,0,0,0,1.21.36l2.44-.14.18,2.18a20.05,20.05,0,0,1-3.11.35A4.88,4.88,0,0,1,728.81,624.93Z" transform="translate(-120.18 -335.82)"/><path class="cls-1" d="M738.87,613h-1.72v-2.3h1.72v-1.09a10.71,10.71,0,0,1,.38-3.21,2.78,2.78,0,0,1,1.22-1.63,4.87,4.87,0,0,1,2.37-.49l3,.24,0,2.21c-2.23-.06-3.11-.09-2.65-.09a1.3,1.3,0,0,0-1.28.8,5.41,5.41,0,0,0-.36,2.2v1.06h4V613h-4V625.1h-2.68Z" transform="translate(-120.18 -335.82)"/><path class="cls-1" d="M750.1,623.62c-1-1.2-1.47-3.08-1.47-5.66s.5-4.54,1.49-5.75,2.6-1.81,4.81-1.81,3.83.6,4.82,1.82,1.48,3.14,1.48,5.74-.49,4.44-1.46,5.65-2.59,1.81-4.84,1.81S751.07,624.82,750.1,623.62Zm7-1a2.72,2.72,0,0,0,1.07-1.59,11,11,0,0,0,.32-3,11.75,11.75,0,0,0-.33-3.16,2.71,2.71,0,0,0-1.09-1.6,4,4,0,0,0-2.12-.47,4.05,4.05,0,0,0-2.13.47,2.68,2.68,0,0,0-1.11,1.61,11.82,11.82,0,0,0-.33,3.15,11.55,11.55,0,0,0,.32,3,2.65,2.65,0,0,0,1.09,1.6,4.11,4.11,0,0,0,2.16.49A4,4,0,0,0,757.08,622.6Z" transform="translate(-120.18 -335.82)"/><path class="cls-1" d="M766,610.71h2.65v1.82a14.39,14.39,0,0,1,5.06-2.13v2.7a22.09,22.09,0,0,0-2.33.63,20.41,20.41,0,0,0-2,.78l-.69.32V625.1H766Z" transform="translate(-120.18 -335.82)"/><path class="cls-1" d="M777.69,610.71h2.65v.95a11,11,0,0,1,2.07-.95,6.6,6.6,0,0,1,2-.31,5.77,5.77,0,0,1,2.07.36,3.41,3.41,0,0,1,1.5,1.07,12.42,12.42,0,0,1,2.52-1,9.67,9.67,0,0,1,2.77-.4,4.72,4.72,0,0,1,2.79.72,3.83,3.83,0,0,1,1.44,2.24,15.42,15.42,0,0,1,.44,4.09v7.65h-2.68v-7.6a13.41,13.41,0,0,0-.22-2.8,2.43,2.43,0,0,0-.77-1.44,2.63,2.63,0,0,0-1.66-.45A8.23,8.23,0,0,0,791,613a7.34,7.34,0,0,0-1.52.48l-.52.23a17.39,17.39,0,0,1,.31,3.91v7.48h-2.7v-7.42a16.68,16.68,0,0,0-.2-2.95,2.46,2.46,0,0,0-.76-1.47,2.63,2.63,0,0,0-1.66-.45,7.29,7.29,0,0,0-1.65.2,7.72,7.72,0,0,0-1.43.47l-.46.23V625.1h-2.68Z" transform="translate(-120.18 -335.82)"/><rect class="cls-1" x="539.4" y="413.88" width="25.07" height="25.07" rx="4.01" transform="translate(-260.04 179.35) rotate(-45)"/><rect class="cls-1" x="569.74" y="413.88" width="25.07" height="25.07" rx="4.01" transform="translate(-251.16 200.81) rotate(-45)"/><rect class="cls-1" x="443.4" y="413.88" width="25.07" height="25.07" rx="4.01" transform="translate(-288.16 111.47) rotate(-45)"/><rect class="cls-1" x="473.74" y="413.88" width="25.07" height="25.07" rx="4.01" transform="translate(-279.27 132.92) rotate(-45)"/><path class="cls-1" d="M840.78,475.79a12.58,12.58,0,0,0-3.83-1.25A27,27,0,0,0,822.58,476c-7.7,2.88-15.66,8.38-15.17,18.88v48.62a22.51,22.51,0,0,1-5.84,15.25c-7.51,8.15-22.49,18.73-46,11.41h0c-1.4-.42-2.84-.91-4.32-1.48-.8-.3-1.63-.68-2.51-1.06-.22-.08-.45-.19-.68-.3-7.93-3.45-19-8.84-19-8.84V548.11c.37,12.45,20,15.91,27.3,16.77a12,12,0,0,0,5.54-.66c7.77-2.85,15.79-8.36,15.28-18.91V496.69a22.47,22.47,0,0,1,5.84-15.24c7.59-8.2,22.72-18.89,46.46-11.27a5.53,5.53,0,0,1,.87.27c2.05.68,4.14,1.48,6.26,2.42C840.29,474.58,840.78,475.68,840.78,475.79Z" transform="translate(-120.18 -335.82)"/><path class="cls-1" d="M886,472.87s-30.19,1.82-29.24,22v48.62a22.51,22.51,0,0,1-5.84,15.25c-7.62,8.26-23,19.07-47.06,11.07a.54.54,0,0,1-.27-.08c-1-.34-2-.72-3.07-1.1a.27.27,0,0,1-.15,0c-7.13-2.7-7.7-4.37-7.7-4.37a12.76,12.76,0,0,0,3.36,1.23,25.83,25.83,0,0,0,14.61-.95c8-2.81,16.45-8.33,15.93-19.16V496.69a22.47,22.47,0,0,1,5.84-15.24C840.67,472.46,858.08,460.47,886,472.87Z" transform="translate(-120.18 -335.82)"/><path class="cls-1" d="M768.39,472.87s-30.19,1.82-29.24,22v48.62a22.51,22.51,0,0,1-5.84,15.25c-8.31,9-25.71,21-53.59,8.57,0,0,30.19-1.82,29.24-22V496.69a22.47,22.47,0,0,1,5.84-15.24C723.11,472.46,740.51,460.47,768.39,472.87Z" transform="translate(-120.18 -335.82)"/><path class="cls-1" d="M715.29,472.87s-30.18,1.82-29.23,22v48.62a22.51,22.51,0,0,1-5.84,15.25c-8.31,9-25.72,21-53.59,8.57,0,0,30.19-1.82,29.24-22V496.69a22.47,22.47,0,0,1,5.84-15.24C670,472.46,687.42,460.47,715.29,472.87Z" transform="translate(-120.18 -335.82)"/><path class="cls-1" d="M662.2,472.87s-30.19,1.82-29.24,22v48.62a22.51,22.51,0,0,1-5.84,15.25c-7.51,8.11-22.41,18.65-45.73,11.49a59.8,59.8,0,0,1-6.53-2.36,10.65,10.65,0,0,1-1.32-.56c-7.93-3.45-18.7-8.73-18.7-8.73V548.23c.37,12.58,20.2,15.93,27.26,16.73a11.1,11.1,0,0,0,5-.61c7.87-2.81,16.18-8.33,15.67-19V496.69a22.47,22.47,0,0,1,5.84-15.24C616.92,472.46,634.33,460.47,662.2,472.87Z" transform="translate(-120.18 -335.82)"/><path class="cls-1" d="M593.94,472.87s-30.19,1.82-29.24,22v48.62a22.51,22.51,0,0,1-5.84,15.25c-7.51,8.11-22.41,18.65-45.77,11.49-1.44-.42-3-1-4.48-1.56-.64-.23-1.33-.53-2-.83-.42-.15-.83-.34-1.25-.53-7.93-3.45-18.77-8.8-18.77-8.8V548.19c.38,12.49,20.36,15.82,27.7,16.62a11.52,11.52,0,0,0,5.29-.71c7.64-2.9,15.42-8.43,14.94-18.79V496.69a22.47,22.47,0,0,1,5.84-15.24C548.66,472.46,566.07,460.47,593.94,472.87Z" transform="translate(-120.18 -335.82)"/><path class="cls-1" d="M480.51,475.79a12.67,12.67,0,0,0-3.83-1.25A27,27,0,0,0,462.31,476c-7.7,2.88-15.66,8.38-15.17,18.88v48.62a22.51,22.51,0,0,1-5.84,15.25c-7.17,7.77-21.13,17.74-42.78,12.28a14,14,0,0,1-2.5-.68c-1.48-.46-3.53-1.18-5.88-2a4.36,4.36,0,0,1-.53-.19c-10.85-3.94-27.46-10.58-27.46-10.58V547.2c.38,12.76,26,16.58,34.6,17.5a12,12,0,0,0,5.69-.78c7.5-2.94,15-8.42,14.51-18.61V496.69a22.47,22.47,0,0,1,5.84-15.24c7.59-8.2,22.72-18.89,46.46-11.27a5.88,5.88,0,0,1,.87.27c2.05.68,4.13,1.48,6.26,2.42C480,474.58,480.51,475.68,480.51,475.79Z" transform="translate(-120.18 -335.82)"/><path class="cls-1" d="M390.14,568.25c2.35.87,4.4,1.59,5.88,2" transform="translate(-120.18 -335.82)"/><path class="cls-1" d="M525.68,472.87s-30.19,1.82-29.24,22v48.62a22.51,22.51,0,0,1-5.84,15.25c-7.62,8.26-23,19.07-47.06,11.07a.54.54,0,0,1-.27-.08c-1-.34-2-.72-3.07-1.1,0,0-.12,0-.15,0-7.13-2.7-7.7-4.37-7.7-4.37a12.5,12.5,0,0,0,3.36,1.23,25.83,25.83,0,0,0,14.61-.95c8-2.81,16.45-8.33,15.93-19.16V496.69a22.47,22.47,0,0,1,5.84-15.24C480.4,472.46,497.8,460.47,525.68,472.87Z" transform="translate(-120.18 -335.82)"/><path class="cls-1" d="M441.69,345.66s-46.91-10.7-53.22,30.42c0,0-1.68.85-4.84,96l0,24.79c0,5.4.16,10.8.31,16.2.4,14.69-2.34,45.06-25,84.47a74.29,74.29,0,0,1-21.7,23.92,175.76,175.76,0,0,1-129.4,29.3s-70.19-11.18-85.65-83.45c0,0-18.94-67.64,60.36-111.83,0,0,28.2-13.69,41-13.78,0,0-59.92,14.74-85.13,71.67,0,0-42.77,79.53,62.41,117.59,0,0,55.59,23.06,109.93-15.37a87.72,87.72,0,0,0,24-25.88,176.11,176.11,0,0,0,25.23-80s1.53-62.62.44-109.23c0,0-3.08-51.16,33.36-62.91C393.77,337.56,423.22,330.24,441.69,345.66Z" transform="translate(-120.18 -335.82)"/></svg>